<svg width="393" height="398" viewBox="0 0 393 398" fill="none" xmlns="http://www.w3.org/2000/svg">
  <mask id="mask0_1212_2457" style="mask-type:alpha" maskUnits="userSpaceOnUse" x="0" y="0" width="393" height="398">
  <path d="M3.0782 119.556C5.49626 56.2341 56.3359 5.49126 119.662 3.19391L197.365 0.375L273.651 3.14424C337.511 5.46242 388.573 57.0169 390.277 120.897L392.382 199.781L390.298 277.71C388.584 341.814 337.179 393.461 273.084 395.475L197.365 397.855L120.22 395.432C56.6609 393.435 5.48017 342.604 3.04847 279.06L0.0146362 199.781L3.0782 119.556Z" fill="#00122B"/>
  </mask>
  <g mask="url(#mask0_1212_2457)">
  <path d="M551.74 201.555C551.74 417.92 374.094 593.329 154.945 593.329C-64.2053 593.329 -241.851 417.92 -241.851 201.555C-241.851 -14.8109 -64.2053 -190.22 154.945 -190.22C374.094 -190.22 551.74 -14.8109 551.74 201.555Z" fill="#FF006E" stroke="black" stroke-width="0.946333"/>
  </g>
  <rect width="256.065" height="58.1737" rx="12" transform="matrix(-0.711884 -0.702297 0.711294 -0.702894 266.653 315.494)" fill="#DFBCBC"/>
  <rect width="153.198" height="58.1737" rx="12" transform="matrix(-0.711884 -0.702297 0.711294 -0.702894 193.425 243.251)" fill="white"/>
  <rect width="256.064" height="58.174" rx="12" transform="matrix(0.711589 -0.702596 0.711589 0.702596 84.3945 274.651)" fill="#DFBCBC"/>
  <path d="M92.9336 283.082C88.2176 278.425 88.2176 270.876 92.9336 266.219L195.651 164.8L237.047 205.673L134.33 307.092C129.614 311.749 121.967 311.749 117.251 307.092L92.9336 283.082Z" fill="white"/>
  </svg>
  