<svg width="27" height="27" viewBox="0 0 27 27" fill="none" xmlns="http://www.w3.org/2000/svg">
<circle cx="13.0703" cy="13.5273" r="13" fill="#FDB52A"/>
<path d="M12.5518 7.4175C12.7833 7.02014 13.3573 7.02014 13.5888 7.4175L15.2002 10.1842C15.285 10.3297 15.4271 10.4329 15.5917 10.4686L18.7209 11.1462C19.1703 11.2435 19.3477 11.7895 19.0413 12.1324L16.908 14.5199C16.7958 14.6455 16.7415 14.8125 16.7585 14.9801L17.081 18.1656C17.1274 18.6231 16.6629 18.9605 16.2421 18.7751L13.3123 17.484C13.1581 17.416 12.9825 17.416 12.8284 17.484L9.89848 18.7751C9.47768 18.9605 9.01326 18.6231 9.05959 18.1656L9.38211 14.9801C9.39908 14.8125 9.34482 14.6455 9.23258 14.5199L7.09929 12.1324C6.79289 11.7895 6.97029 11.2435 7.41972 11.1462L10.5489 10.4686C10.7136 10.4329 10.8556 10.3297 10.9404 10.1842L12.5518 7.4175Z" fill="white"/>
</svg>
