<?xml version="1.0" encoding="utf-8"?>
<!-- Generator: Adobe Illustrator 16.0.0, SVG Export Plug-In . SVG Version: 6.00 Build 0)  -->
<!DOCTYPE svg PUBLIC "-//W3C//DTD SVG 1.1//EN" "http://www.w3.org/Graphics/SVG/1.1/DTD/svg11.dtd">
<svg version="1.1" id="Layer_1" xmlns="http://www.w3.org/2000/svg" xmlns:xlink="http://www.w3.org/1999/xlink" x="0px" y="0px"
	 width="991.55px" height="809.19px" viewBox="5.018 96.405 991.55 809.19" enable-background="new 5.018 96.405 991.55 809.19"
	 xml:space="preserve">
<linearGradient id="SVGID_1_" gradientUnits="userSpaceOnUse" x1="184.1387" y1="184.4541" x2="817.4481" y2="817.7635">
	<stop  offset="0" style="stop-color:#FF805F"/>
	<stop  offset="0.5" style="stop-color:#B74BDD"/>
	<stop  offset="1" style="stop-color:#0379FF"/>
</linearGradient>
<path fill="url(#SVGID_1_)" d="M736.363,723.557c0.038,0.055,0.076,0.1,0.105,0.16l0.168,0.176
	C736.547,723.786,736.455,723.672,736.363,723.557z M616.108,576.907l-0.009,0.008l-92.214,82.593l0.046,0.053h-0.046v129.656
	c0,64.278,52.102,116.379,116.38,116.379c63.881,0,115.746-51.468,116.371-115.204c10.964,3.419,22.624,5.266,34.71,5.266
	c64.271,0,116.382-52.101,116.382-116.379c0-22.914-6.625-44.271-18.056-62.279c59.837-4.822,106.896-54.909,106.896-115.998
	c0-61.036-46.988-111.098-106.758-115.989c11.348-17.962,17.918-39.251,17.918-62.074c0-64.271-52.109-116.378-116.382-116.378
	c-12.086,0-23.745,1.847-34.71,5.265c-0.511-63.828-52.422-115.417-116.371-115.417c-64.278,0-116.38,52.108-116.38,116.379v129.549
	l0.122,0.107l92.092,82.483l0.009,0.008V576.907z M710.862,212.784c0,13.566-3.831,26.241-10.47,37l-20.146,21.183l-24.433,25.691
	h-86.146v-83.874c0-38.983,31.604-70.597,70.598-70.597C679.25,142.188,710.862,173.801,710.862,212.784z M661.891,571.597V430.404
	h218.299c38.983,0,70.598,31.612,70.598,70.596c0,38.992-31.613,70.597-70.598,70.597H661.891z M569.669,705.343h86.147
	l24.447,25.699l20.121,21.159c6.646,10.759,10.478,23.439,10.478,37.016c0,38.991-31.612,70.598-70.597,70.598
	c-38.992,0-70.598-31.605-70.598-70.598L569.669,705.343L569.669,705.343z M639.548,617.379h185.765
	c21.83,12.003,36.634,35.223,36.634,61.898c0,38.992-31.612,70.597-70.599,70.597c-18.184,0-34.756-6.875-47.27-18.168l-0.03-0.031
	c-2.656-2.388-5.136-4.989-7.396-7.767l-0.016-0.017l-0.168-0.176l-25.95-27.286l-33.887-35.634l-0.176-0.184l-1-1.054h-83.011
	L639.548,617.379z M592.63,342.44h82.827l0.977-1.022l0.199-0.214l33.878-35.627l25.982-27.324l1.84-1.931l0.014-0.015
	c1.185-1.344,2.419-2.648,3.701-3.884v-0.008c12.72-12.422,30.117-20.075,49.3-20.075c38.985,0,70.599,31.613,70.599,70.596
	c0,26.524-14.628,49.629-36.253,61.686h-185.97L592.63,342.44z M523.887,342.333v0.107h0.122L523.887,342.333z M523.887,342.333
	v0.107h0.122L523.887,342.333z M738.347,276.308l3.701-3.884C740.766,273.659,739.53,274.964,738.347,276.308z M736.653,723.908
	c2.259,2.775,4.737,5.379,7.395,7.767L736.653,723.908z M616.101,424.925v5.479h0.008v-5.472L616.101,424.925z M616.101,571.597
	v5.318l0.008-0.008v-5.311H616.101z M264.948,723.893l0.168-0.176c0.031-0.062,0.068-0.105,0.107-0.16
	C265.131,723.672,265.04,723.786,264.948,723.893z M385.478,424.933l0.008-0.008l92.091-82.483l0.122-0.107v-129.55
	c0-64.271-52.102-116.379-116.379-116.379c-63.951,0-115.86,51.59-116.372,115.417c-10.964-3.418-22.624-5.265-34.71-5.265
	c-64.271,0-116.379,52.108-116.379,116.378c0,22.823,6.57,44.112,17.916,62.074C52.006,389.902,5.018,439.964,5.018,501
	c0,61.089,47.057,111.176,106.895,115.998c-11.43,18.008-18.053,39.365-18.053,62.279c0,64.278,52.108,116.379,116.379,116.379
	c12.086,0,23.746-1.847,34.71-5.266c0.626,63.736,52.49,115.204,116.372,115.204c64.278,0,116.379-52.101,116.379-116.379V659.561
	h-0.045l0.045-0.053l-92.213-82.593l-0.008-0.008L385.478,424.933L385.478,424.933z M361.32,142.188
	c38.993,0,70.597,31.613,70.597,70.597v83.874H345.77l-24.433-25.691l-20.145-21.183c-6.639-10.758-10.469-23.433-10.469-37
	C290.724,173.801,322.336,142.188,361.32,142.188z M121.397,571.597C82.413,571.597,50.8,539.992,50.8,501
	c0-38.983,31.613-70.596,70.597-70.596h218.298v141.191L121.397,571.597L121.397,571.597z M431.917,789.217
	c0,38.991-31.604,70.598-70.597,70.598c-38.984,0-70.597-31.605-70.597-70.598c0-13.575,3.83-26.257,10.477-37.016l20.121-21.159
	l24.448-25.699h86.147L431.917,789.217L431.917,789.217z M409.14,659.561h-83.011l-1,1.054l-0.175,0.184l-33.887,35.634
	l-25.951,27.286l-0.168,0.176l-0.015,0.017c-2.259,2.775-4.739,5.379-7.394,7.767l-0.03,0.031
	c-12.514,11.293-29.087,18.168-47.27,18.168c-38.984,0-70.597-31.604-70.597-70.597c0-26.677,14.803-49.896,36.633-61.898h185.763
	L409.14,659.561z M361.862,384.622H175.893c-21.625-12.057-36.252-35.161-36.252-61.685c0-38.983,31.613-70.597,70.597-70.597
	c19.182,0,36.58,7.653,49.3,20.075v0.008c1.282,1.235,2.518,2.54,3.701,3.884l0.015,0.015l1.839,1.931l25.982,27.324l33.879,35.627
	l0.198,0.214l0.977,1.022h82.828L361.862,384.622z M477.699,342.333v0.107h-0.122L477.699,342.333z M477.699,342.333v0.107h-0.122
	L477.699,342.333z M263.239,276.308l-3.701-3.884C260.82,273.659,262.056,274.964,263.239,276.308z M264.933,723.908
	c-2.259,2.775-4.739,5.379-7.394,7.767L264.933,723.908z M385.486,424.925v5.479h-0.008v-5.472L385.486,424.925z M385.486,571.597
	v5.318l-0.008-0.008v-5.311H385.486z"/>
</svg>
